<?xml version="1.0" encoding="utf-8"?>
<!-- Generator: Adobe Illustrator 13.0.0, SVG Export Plug-In  -->
<!DOCTYPE svg PUBLIC "-//W3C//DTD SVG 1.1//EN" "http://www.w3.org/Graphics/SVG/1.1/DTD/svg11.dtd" [
	<!ENTITY ns_flows "http://ns.adobe.com/Flows/1.0/">
]>
<svg version="1.1"
	 xmlns="http://www.w3.org/2000/svg" xmlns:xlink="http://www.w3.org/1999/xlink" xmlns:a="http://ns.adobe.com/AdobeSVGViewerExtensions/3.0/"
	 x="0px" y="0px" width="78px" height="62px" viewBox="-0.587 -1.288 78 62" enable-background="new -0.587 -1.288 78 62"
	 xml:space="preserve">
<defs>
</defs>
<path d="M76.628,22.834L75.771,11.97c0.204-0.769,0.337-1.484,0.342-2.082c-0.002-0.624-0.128-1.233-0.653-1.601h0
	c-0.931-0.636-1.732-1.094-2.526-1.416l-4.868-5.433l-0.373,0.332l4.275,4.772c-0.063-0.017-0.127-0.028-0.19-0.043L65.21,0.75
	l-0.33,0.375l5.963,5.221c-0.365-0.04-0.741-0.065-1.149-0.063c-0.265,0-0.547,0.006-0.846,0.022
	c-2.202,0.114-4.325,0.073-6.535,0.705c-3.375,1.076-4.667,4.818-7.578,4.868c-0.043,0.002-0.093,0.002-0.145,0.004
	c-1.041,0.021-1.947-0.62-3.089-0.652c-1.003-0.013-1.918,0.68-2.702,2.384c-0.286,0.6-0.433,1.087-0.436,1.536
	c-0.021,0.602,0.357,1.109,0.8,1.313c1.273,0.554,3.216,0.31,3.608,0.98c0.048,0.054,0.146,0.25,0.258,0.524
	c-0.819,0.239-1.634,0.339-2.441,0.339c-1.691,0.002-3.354-0.443-4.913-0.946c1.386-4.603,3.815-9.89,3.818-9.899l0.042-0.094
	c0.874-0.495,1.115-1.647,1.382-2.479c0.201-0.751,0.796-2.258,0.806-3.404c0.017-0.519-0.172-1.207-0.856-1.397
	C50.687,0.035,50.494,0,50.291,0c-0.63-0.006-1.192,0.36-1.704,1.006c-0.531,0.654-1.113,1.642-1.922,3.149
	c-0.16,0.296-0.237,0.617-0.237,0.929c0,0.299,0.067,0.586,0.18,0.853c-0.094,0.123-0.179,0.267-0.256,0.431
	c-0.966,2.06-2.791,5.923-6.357,9.662c-0.048,0.003-0.103,0.008-0.163,0.016c-7.595,1.205-10.785,1.901-13.035,1.897
	c-0.544-0.001-1.037-0.039-1.533-0.12c1.935-0.696,3.603-1.408,4.817-2.047c0.389-0.087,0.786-0.204,1.157-0.34
	c0.551-0.203,1.211-0.485,1.762-0.807c0.524-0.353,1.051-0.595,1.134-1.324c0-0.092-0.015-0.181-0.048-0.274
	c-0.373-0.68-0.935-0.586-1.514-0.636c-0.908,0.004-2.044,0.207-2.803,0.484c-0.406,0.148-0.768,0.342-1.074,0.564
	c-1.774,0.406-4.178,0.995-6.884,1.335c-1.285,0.161-2.436,0.418-3.463,0.725c-0.086-0.033-0.173-0.064-0.263-0.099
	c-0.794-0.292-1.787-0.454-2.907-0.454c-2.828,0-6.479,1.035-9.448,3.861c-2.967,2.828-5.198,7.44-5.193,14.453
	c0,0.526,0.012,1.066,0.039,1.626C0.587,35.129-0.002,37.778,0,41.043c0.002,3.647,0.707,8.271,3.755,12.009
	c3.048,3.738,8.412,6.496,17.46,6.496h0.031c2.856-0.002,6.083-0.272,9.73-0.868c0.696-0.084,1.26-0.168,1.663-0.237
	c0.218-0.037,0.39-0.07,0.512-0.097c0.062-0.013,0.112-0.025,0.158-0.038c0.022-0.006,0.045-0.012,0.083-0.028
	c0.021-0.007,0.043-0.017,0.091-0.046c0.025-0.041,0.185-0.048,0.232-0.423c-0.116-0.556-0.409-0.458-0.402-0.491
	c-0.083-0.013-0.097-0.013-0.104-0.011c-0.004,0-0.004,0-0.01,0c-0.187,0.006-0.444,0.05-1.045,0.155
	c-0.438,0.079-0.869,0.153-1.295,0.223c-1.541,0.187-3.767,0.378-6.258,0.373c-4.474,0.004-9.898-0.604-14.134-2.822
	c-4.232-2.235-7.302-5.961-7.319-12.502c0-0.416,0.013-0.844,0.04-1.282c0.599,0.867,1.674,2.41,3.331,3.839
	c2.336,2.023,5.938,3.929,11.306,3.925c0.199,0,0.396-0.005,0.593-0.007c0.51-0.013,0.973-0.042,1.407-0.087
	c0.781,0.262,1.592,0.523,2.435,0.782c3.647,1.118,6.943,1.886,9.149,2.182c0.478,0.173,1.017,0.301,1.526,0.379
	c0.5,0.076,1.095,0.132,1.659,0.132c0.417,0,0.813-0.028,1.163-0.128c0.328-0.092,0.745-0.293,0.842-0.796
	c0.006-0.048,0.008-0.083,0.008-0.121c-0.122-0.848-0.796-1.075-1.491-1.468c-0.721-0.342-1.561-0.613-2.212-0.715
	c-0.224-0.035-0.448-0.052-0.666-0.052c-0.053,0-0.106,0-0.161,0.002c-1.296-0.632-3.049-1.347-5.092-2.067
	c2.106-0.531,4.969-1.015,9.612-1.215c2.429-0.106,4.784-1.154,6.959-2.605c4.903-0.679,12.243-1.114,15.229-1.27
	c0.684,0.537,1.624,0.701,2.458,0.711c0.646-0.002,1.437-0.089,2.127-0.353c0.667-0.246,1.366-0.767,1.373-1.648
	c-0.04-0.933-0.79-1.511-1.561-1.953c-0.8-0.433-1.708-0.707-2.438-0.713c-0.554-0.002-1.063,0.168-1.483,0.443
	c-1.657,0-5.519-0.272-9.449-0.757c2.211-2.401,3.884-4.643,4.644-5.529c1.424-1.66,2.167-2.16,2.585-2.389
	c0.088-0.043,0.187-0.087,0.289-0.14c-0.31,1.208-1.434,3.425-1.471,4.673c-0.042,0.41,0.276,1.045,0.858,1.069
	c0.33,0.031,0.632,0.044,0.915,0.044c2.289,0.054,3.323-1.157,3.738-2.444c0.454-1.279,0.632-2.615,1.576-3.517
	c1.677-1.692,6.131-3.336,7.375-6.339c0.579-1.505,1.646-2.448,3.096-5.409c0.55-1.139,1.129-2.43,1.614-3.696l0.099,11.224
	l0.5-0.006L75.54,15.388l0.59,7.487L76.628,22.834z"/>
</svg>
