<?xml version="1.0" encoding="utf-8"?>
<!-- Generator: Adobe Illustrator 13.0.0, SVG Export Plug-In  -->
<!DOCTYPE svg PUBLIC "-//W3C//DTD SVG 1.1//EN" "http://www.w3.org/Graphics/SVG/1.1/DTD/svg11.dtd" [
	<!ENTITY ns_flows "http://ns.adobe.com/Flows/1.0/">
]>
<svg version="1.1"
	 xmlns="http://www.w3.org/2000/svg" xmlns:xlink="http://www.w3.org/1999/xlink" xmlns:a="http://ns.adobe.com/AdobeSVGViewerExtensions/3.0/"
	 x="0px" y="0px" width="98px" height="98px" viewBox="0 0 98 98" enable-background="new 0 0 98 98" xml:space="preserve">
<defs>
</defs>
<path display="none" fill="none" stroke="#00CC05" stroke-width="9" d="M93.832,49.165c0,24.672-20,44.667-44.667,44.667
	C24.5,93.832,4.5,73.837,4.5,49.165C4.5,24.495,24.5,4.5,49.165,4.5C73.833,4.5,93.832,24.495,93.832,49.165z"/>
<path fill="none" stroke="#FF0000" stroke-width="9" d="M93.832,49.165c0,24.672-20,44.667-44.667,44.667
	C24.5,93.832,4.5,73.837,4.5,49.165C4.5,24.495,24.5,4.5,49.165,4.5C73.833,4.5,93.832,24.495,93.832,49.165z"/>
<line fill="none" stroke="#FF0000" stroke-width="7" x1="24.167" y1="87.832" x2="73.395" y2="13.166"/>
<path display="none" fill-rule="evenodd" clip-rule="evenodd" d="M87.396,49.41c-1.219-1.659-0.143-0.347-1.472-1.842
	c-1.021-1.131-1.915-5.144-4.651-6.728c-1.261-1.019-2.1-2.114-4.529-3.025c3.578-10.311-13.163-13.838-9.97-3.15
	c-4.107-1.633-10.186-2.03-13.577-3.626c-2.658-0.83-8.592-0.762-14.653,0.215c-14.246,2.294-19.097,13.86-20.316,28.649
	c0,0-2.327,1.785-4.403-1.121s-0.333-10.84-0.333-11.255c0.499-3.738,2.215-9.453,6.229-14.702c1.62-2.118,2.521-2.999,6.728-5.856
	c4.403-2.989,13.706-6.105,13.706-6.105s-4.236,0.499-9.22,2.617c-2.114,0.898-1.869,0.499-6.853,3.488
	c-0.623,0.374-6.769,5.316-9.427,11.463c-0.971,2.244-2.224,6.271-2.659,9.22c-0.416,2.825-2.409,9.885,0.665,14.037
	c2.936,3.968,7.144,2.037,7.144,2.037c5.415-0.229,4.984,0.04,8.769,0.061c-0.448,1.674,0.457,1.992,1.049,2.624
	c5.619-0.963,13.938-1.48,16.43,1.345c1.97,0.415,1.267-1.06,0.332-2.742c-2.171-1.263-4.153-0.77-7.31-1.268
	c0.66-0.063-2.582-0.092-0.997-0.976c1.201-0.67,2.804-1.298,4.984-2.16c0.31-0.398,0.423-0.661,0.437-0.839
	c2.963-0.278,5.683-0.081,6.978,1.13c1.704,0.191,0.987-1.001,0.058-2.351c-1.198-0.55-2.281-0.541-3.571-0.491
	c4.527-1.298,9.344-2.122,10.469-2.018c0.88,0.082,1.732,1.32,2.492,1.827c2.472,1.651,4.441,2.9,6.063,5.191
	c0.72,1.018,1.014,1.901,1.662,2.202c2.741,0.81,0.581-2.285-0.167-3.406c-0.474-1.626-1.98-2.945-3.613-4.839
	c-0.64-0.74-0.934-1.7-0.978-2.393c0.706,0.966,1.417,2.591,1.994,2.787c1.324-0.011,0.475-1.809-0.233-3.309
	c1.168-0.403,3.174-1.088,3.66-1.05c2.589,0.2,2.741,0.581,4.153,0.746c2.63-0.191,4.403,0.333,6.812-1.163
	c2.468,0.062,2.551,0.765,5.316,0.498c0.83-0.664,1.749-1.277,2.801-2.148C87.917,50.164,87.668,49.811,87.396,49.41z
	 M81.648,45.305c-0.149,0.387-0.765,0.509-1.375,0.272c-0.61-0.235-0.984-0.74-0.834-1.126c0.149-0.387,0.765-0.509,1.375-0.272
	C81.424,44.414,81.797,44.919,81.648,45.305z"/>
<path fill-rule="evenodd" clip-rule="evenodd" stroke="#000000" stroke-width="0.5" d="M76.089,37.054
	c0.914,5.849-4.357,8.128-19.167,11.667c-14.809,3.539-32.467,5.626-33.333,2c-0.867-3.625,12.774-13.127,27.583-16.666
	S75.256,31.721,76.089,37.054z"/>
<path fill-rule="evenodd" clip-rule="evenodd" stroke="#000000" stroke-width="0.5" d="M76.256,37.971
	c0.914,5.849-8.833,10.418-14.25,12.084c-8.667,2.666-32.551,7.709-33.417,4.083c-0.867-3.625,13.191-11.044,28-14.583
	S75.423,32.638,76.256,37.971z"/>
<path fill-rule="evenodd" clip-rule="evenodd" stroke="#000000" stroke-width="0.5" d="M33.69,56.027
	c-0.456,3.4-5.085,9.243-4.023,6.37c0.782-2.114,2.368-3.546,2.868-6.562c0.271-1.637,0.376-0.665,0.695-0.612
	S33.911,54.383,33.69,56.027z"/>
<path fill-rule="evenodd" clip-rule="evenodd" stroke="#000000" stroke-width="0.5" d="M47.34,28.55
	c0-0.667-0.666-0.667-1.333-0.667l-0.188,0.255c-0.167,0-0.395,0.162-0.395,0.829l-0.333,6.416c0,0.667,1.458,0.542,2.125,0.542l0,0
	c0.667,0,1.208-0.541,1.208-1.208L47.34,28.55z"/>
<path fill-rule="evenodd" clip-rule="evenodd" stroke="#000000" stroke-width="0.5" d="M27.694,36.042
	c-0.046,0.342-0.77,0.835-1.112,0.791c0,0-3.236,1.442-7.345,1.24c-5.136-0.545-7.322-1.833-7.322-1.833
	c-0.343-0.044-0.583-0.359-0.539-0.701l0,0c0.046-0.342,0.805-0.196,1.147-0.151c0,0,3.095,1.784,6.64,1.688
	c3.829-0.104,8.124-1.476,8.124-1.476c0.342,0.045,0.583,0.359,0.538,0.701L27.694,36.042z"/>
<path fill-rule="evenodd" clip-rule="evenodd" stroke="#000000" stroke-width="0.5" d="M45.954,27.991
	c0.136,0.317,0.405,0.74,0.088,0.877l-18.871,7.867c-0.316,0.136-0.685-0.011-0.821-0.327l0,0c-0.136-0.317,0.01-0.685,0.328-0.821
	l18.455-7.923C45.45,27.527,45.818,27.675,45.954,27.991L45.954,27.991z"/>
<line stroke="#000000" stroke-width="0.5" x1="31.745" y1="33.489" x2="29.989" y2="32.754"/>
<line stroke="#000000" stroke-width="0.5" x1="34.152" y1="32.303" x2="32.061" y2="31.403"/>
<line stroke="#000000" stroke-width="0.5" x1="37.141" y1="30.945" x2="35.215" y2="29.794"/>
<line stroke="#000000" stroke-width="0.5" x1="41.132" y1="29.829" x2="38.624" y2="28.767"/>
<line stroke="#000000" stroke-width="0.5" x1="31.753" y1="34.447" x2="31.015" y2="35.954"/>
<line stroke="#000000" stroke-width="0.5" x1="34.742" y1="33.048" x2="34.132" y2="34.928"/>
<line stroke="#000000" stroke-width="0.5" x1="37.608" y1="32.024" x2="37.25" y2="34.152"/>
<line stroke="#000000" stroke-width="0.5" x1="40.97" y1="30.372" x2="40.247" y2="33.628"/>
<path fill-rule="evenodd" clip-rule="evenodd" stroke="#000000" stroke-width="0.5" d="M58.223,56.404
	c0.493,0.449,0.044,0.941-0.407,1.435l-0.315-0.033c-0.113,0.124-0.387,0.183-0.878-0.267l-4.964-4.08
	c-0.492-0.45,0.583-1.442,1.033-1.935l0,0c0.45-0.492,1.214-0.528,1.708-0.078L58.223,56.404z"/>
<path fill-rule="evenodd" clip-rule="evenodd" stroke="#000000" stroke-width="0.5" d="M37.928,62.034
	c-0.225-0.26-1.101-0.273-1.363-0.049c0,0-3.447,0.479-6.879,2.188c-4.249,1.618-7.768,4.206-7.768,4.206
	c-0.262,0.224-1.015,1.213-0.791,1.475l0,0c0.227,0.261,0.78-0.277,1.042-0.504c0,0,4.122-2.593,7.927-4.317
	c3.489-1.581,7.735-2.406,7.735-2.406c0.261-0.226,0.289-0.62,0.063-0.881L37.928,62.034z"/>
<path fill-rule="evenodd" clip-rule="evenodd" stroke="#000000" stroke-width="0.5" d="M58.426,57.743
	c-0.07-0.339-0.092-0.84-0.43-0.77l-19.974,4.365c-0.338,0.07-0.555,0.401-0.485,0.739l0,0c0.07,0.338,0.401,0.556,0.739,0.485
	l19.665-4.082C58.279,58.412,58.496,58.081,58.426,57.743L58.426,57.743z"/>
<line stroke="#000000" stroke-width="0.5" x1="43.63" y1="61.378" x2="42.612" y2="62.988"/>
<line stroke="#000000" stroke-width="0.5" x1="46.283" y1="60.971" x2="45.084" y2="62.907"/>
<line stroke="#000000" stroke-width="0.5" x1="49.511" y1="60.371" x2="48.591" y2="62.419"/>
<line stroke="#000000" stroke-width="0.5" x1="53.421" y1="58.999" x2="51.974" y2="61.309"/>
<line stroke="#000000" stroke-width="0.5" x1="43.087" y1="60.589" x2="41.62" y2="59.776"/>
<line stroke="#000000" stroke-width="0.5" x1="46.339" y1="60.023" x2="44.763" y2="58.832"/>
<line stroke="#000000" stroke-width="0.5" x1="49.274" y1="59.22" x2="47.763" y2="57.68"/>
<line stroke="#000000" stroke-width="0.5" x1="52.977" y1="58.647" x2="50.519" y2="56.394"/>
<path fill-rule="evenodd" clip-rule="evenodd" stroke="#000000" stroke-width="0.5" d="M65.098,54.529
	c0.493,0.449,0.044,0.941-0.407,1.435l-0.315-0.033c-0.113,0.124-0.387,0.183-0.878-0.267l-4.964-4.08
	c-0.492-0.45,0.583-1.442,1.033-1.935l0,0c0.45-0.492,1.214-0.528,1.708-0.078L65.098,54.529z"/>
<path fill-rule="evenodd" clip-rule="evenodd" stroke="#000000" stroke-width="0.5" d="M50.837,69.394
	c-0.227-0.108-0.82,0.137-0.931,0.364c0,0-2.179,1.324-3.989,3.47c-2.386,2.323-3.999,5.085-3.999,5.085
	c-0.111,0.227-0.33,1.111-0.103,1.223l0,0c0.228,0.109,0.444-0.414,0.554-0.643c0,0,2.017-2.94,4.075-5.206
	c1.886-2.077,4.5-3.866,4.5-3.866c0.11-0.228,0.014-0.502-0.213-0.611L50.837,69.394z"/>
<path fill-rule="evenodd" clip-rule="evenodd" stroke="#000000" stroke-width="0.5" d="M65.384,55.703
	c-0.236-0.253-0.515-0.67-0.768-0.434L49.821,69.38c-0.252,0.235-0.266,0.63-0.031,0.883l0,0c0.236,0.252,0.631,0.267,0.884,0.031
	l14.678-13.707C65.606,56.351,65.62,55.955,65.384,55.703L65.384,55.703z"/>
<line stroke="#000000" stroke-width="0.5" x1="54.633" y1="66.498" x2="54.6" y2="68.402"/>
<line stroke="#000000" stroke-width="0.5" x1="56.687" y1="64.771" x2="56.669" y2="67.049"/>
<line stroke="#000000" stroke-width="0.5" x1="59.133" y1="62.582" x2="59.412" y2="64.81"/>
<line stroke="#000000" stroke-width="0.5" x1="61.761" y1="59.377" x2="61.725" y2="62.103"/>
<line stroke="#000000" stroke-width="0.5" x1="53.759" y1="66.106" x2="52.083" y2="66.175"/>
<line stroke="#000000" stroke-width="0.5" x1="56.243" y1="63.933" x2="54.277" y2="63.734"/>
<line stroke="#000000" stroke-width="0.5" x1="58.333" y1="61.721" x2="56.241" y2="61.19"/>
<line stroke="#000000" stroke-width="0.5" x1="61.198" y1="59.308" x2="58.779" y2="59.025"/>
<path fill-rule="evenodd" clip-rule="evenodd" stroke="#000000" stroke-width="0.5" d="M53.064,28.191
	c-0.184,0.137-0.754,0.021-0.891-0.163c0,0-2.184-0.871-3.99-2.919c-2.118-2.695-2.517-4.33-2.517-4.33
	c-0.138-0.184-0.099-0.444,0.084-0.581l0,0c0.184-0.137,0.466,0.292,0.603,0.476c0,0,0.584,2.298,2.271,3.939
	c1.821,1.772,4.461,3.181,4.461,3.181c0.137,0.184,0.099,0.443-0.084,0.58L53.064,28.191z"/>
<path fill-rule="evenodd" clip-rule="evenodd" stroke="#000000" stroke-width="0.5" d="M65.344,33.149
	c-0.088,0.211-0.165,0.535-0.376,0.448l-12.476-5.334c-0.211-0.088-0.312-0.33-0.224-0.542l0,0c0.088-0.211,0.33-0.312,0.542-0.224
	l12.31,5.109C65.331,32.695,65.432,32.938,65.344,33.149L65.344,33.149z"/>
<line stroke="#000000" stroke-width="0.5" x1="56.153" y1="28.937" x2="55.69" y2="27.761"/>
<line stroke="#000000" stroke-width="0.5" x1="57.832" y1="29.532" x2="57.291" y2="28.121"/>
<line stroke="#000000" stroke-width="0.5" x1="59.86" y1="30.325" x2="59.516" y2="28.876"/>
<line stroke="#000000" stroke-width="0.5" x1="62.238" y1="31.707" x2="61.583" y2="30.021"/>
<line stroke="#000000" stroke-width="0.5" x1="55.701" y1="29.384" x2="54.643" y2="29.73"/>
<line stroke="#000000" stroke-width="0.5" x1="57.75" y1="30.157" x2="56.574" y2="30.737"/>
<line stroke="#000000" stroke-width="0.5" x1="59.563" y1="31.047" x2="58.386" y2="31.861"/>
<line stroke="#000000" stroke-width="0.5" x1="61.905" y1="31.881" x2="60.021" y2="33.044"/>
<path fill-rule="evenodd" clip-rule="evenodd" stroke="#000000" stroke-width="0.5" d="M76.078,49.943
	c-0.154,0.265-0.144,0.94,0.001,1.062c0,0,0.965,2.711,2.01,4.186c2.114,1.923,3.545,1.991,3.545,1.991
	c0.144,0.123,0.389,0.006,0.544-0.255l0,0c0.156-0.268-0.19-0.504-0.335-0.628c0,0-2.003-0.122-3.227-1.781
	c-1.32-1.8-2.169-4.705-2.169-4.705c-0.146-0.122-0.39-0.006-0.547,0.255L76.078,49.943z"/>
<path fill-rule="evenodd" clip-rule="evenodd" stroke="#000000" stroke-width="0.5" d="M70.645,40.609
	c-0.16,0.092-0.414,0.184-0.316,0.344l5.947,9.37c0.099,0.158,0.309,0.214,0.47,0.124l0,0c0.161-0.091,0.212-0.293,0.113-0.452
	l-5.744-9.262C71.017,40.574,70.806,40.519,70.645,40.609L70.645,40.609z"/>
<line stroke="#000000" stroke-width="0.5" x1="75.256" y1="47.484" x2="76.274" y2="47.736"/>
<line stroke="#000000" stroke-width="0.5" x1="74.556" y1="46.212" x2="75.773" y2="46.501"/>
<line stroke="#000000" stroke-width="0.5" x1="73.65" y1="44.683" x2="74.873" y2="44.81"/>
<line stroke="#000000" stroke-width="0.5" x1="72.219" y1="42.931" x2="73.675" y2="43.284"/>
<line stroke="#000000" stroke-width="0.5" x1="74.952" y1="47.889" x2="74.806" y2="48.763"/>
<line stroke="#000000" stroke-width="0.5" x1="74.059" y1="46.34" x2="73.738" y2="47.33"/>
<line stroke="#000000" stroke-width="0.5" x1="73.101" y1="44.988" x2="72.59" y2="46.005"/>
<line stroke="#000000" stroke-width="0.5" x1="72.12" y1="43.212" x2="71.417" y2="44.822"/>
<path fill-rule="evenodd" clip-rule="evenodd" stroke="#000000" stroke-width="0.5" d="M70.797,29.668
	c0.059,0.194,0.393,0.496,0.517,0.48c0,0,1.755,0.763,2.947,0.925c1.894-0.154,2.577-0.818,2.577-0.818
	c0.125-0.015,0.179-0.187,0.123-0.381l0,0c-0.059-0.196-0.331-0.135-0.457-0.122c0,0-0.969,0.918-2.332,0.761
	c-1.474-0.177-3.272-1.084-3.272-1.084c-0.125,0.017-0.18,0.188-0.124,0.382L70.797,29.668z"/>
<path fill-rule="evenodd" clip-rule="evenodd" stroke="#000000" stroke-width="0.5" d="M61.84,36.456
	c0.107,0.15,0.223,0.395,0.373,0.281l8.75-6.827c0.147-0.114,0.183-0.329,0.078-0.48l0,0c-0.106-0.151-0.313-0.183-0.461-0.068
	l-8.661,6.615C61.769,36.09,61.734,36.305,61.84,36.456L61.84,36.456z"/>
<line stroke="#000000" stroke-width="0.5" x1="68.235" y1="31.2" x2="68.388" y2="30.163"/>
<line stroke="#000000" stroke-width="0.5" x1="67.037" y1="32.021" x2="67.207" y2="30.78"/>
<line stroke="#000000" stroke-width="0.5" x1="65.603" y1="33.07" x2="65.611" y2="31.841"/>
<line stroke="#000000" stroke-width="0.5" x1="63.998" y1="34.665" x2="64.208" y2="33.181"/>
<line stroke="#000000" stroke-width="0.5" x1="68.667" y1="31.464" x2="69.552" y2="31.523"/>
<line stroke="#000000" stroke-width="0.5" x1="67.213" y1="32.502" x2="68.229" y2="32.726"/>
<line stroke="#000000" stroke-width="0.5" x1="65.96" y1="33.587" x2="67.021" y2="33.997"/>
<line stroke="#000000" stroke-width="0.5" x1="64.288" y1="34.736" x2="65.958" y2="35.278"/>
<ellipse transform="matrix(0.2729 0.962 -0.962 0.2729 90.9882 -45.1138)" fill-rule="evenodd" clip-rule="evenodd" stroke="#000000" stroke-width="0.5" cx="75.34" cy="37.638" rx="4.333" ry="3.332"/>
<path fill="none" stroke="#000000" stroke-width="0.5" d="M75.078,34.817c3.056,1.194,8.623-5.764,12.449-15.555"/>
<path fill="none" stroke="#000000" stroke-width="0.5" d="M77.005,40.794c0.888-1.545,6.05-2.314,11.542-1.724"/>
<path fill-rule="evenodd" clip-rule="evenodd" stroke="#000000" stroke-width="0.5" d="M31.665,51.653
	c-3.404-0.433-10.239,2.543-7.189,2.253c2.244-0.213,4.035-1.379,7.078-1.088c1.651,0.158,0.739-0.192,0.77-0.514
	C32.354,51.982,33.311,51.862,31.665,51.653z"/>
<path display="none" stroke="#000000" stroke-width="0.5" d="M55.418,44.32v-2.484h-7.833v2.558
	c-2.625,0.79-4.267,2.234-3.917,3.109c0.014,0.035,0.043,0.069,0.083,0.103c0.621,0.504,4.23,0.725,7.791,0.662
	c3.837-0.066,7.619-0.461,7.542-1.182C58.974,46.025,57.673,44.93,55.418,44.32z M47.513,41.389h7.644
	c0.582,0,1.178-0.887,1.303-2.303c-0.542-0.875-0.824-1.02-1.167-1.042c-1.25-0.083-7.667,0-7.667,0
	c-0.582,0-1.375,1.292-1.167,1.459C46.46,40.544,46.932,41.389,47.513,41.389z"/>
<path display="none" stroke="#000000" stroke-width="0.5" d="M59.117,44.497c-0.171,0.401-0.637,0.591-1.04,0.419l-1.366-0.58
	c-0.404-0.173-0.591-0.639-0.42-1.04l0,0c0.171-0.404,0.637-0.593,1.041-0.421l1.366,0.58
	C59.102,43.628,59.289,44.093,59.117,44.497L59.117,44.497z"/>
<line display="none" stroke="#000000" stroke-width="0.5" x1="57.199" y1="42.231" x2="59.168" y2="42.919"/>
<line display="none" stroke="#000000" stroke-width="0.5" x1="57.722" y1="42.656" x2="58.689" y2="43.023"/>
<path display="none" fill="#050000" stroke="#000000" d="M56.835,32.877c0.042,0.5-0.167,0.793-0.167,0.793H46.501
	c0,0-0.375-0.292-0.333-0.751s0.333-0.666,0.333-0.666h10.167C56.668,32.253,56.793,32.377,56.835,32.877z"/>
<line display="none" fill="none" stroke="#000000" x1="46.835" y1="33.294" x2="47.793" y2="38.002"/>
<line display="none" fill="none" stroke="#000000" x1="56.293" y1="33.419" x2="55.334" y2="38.127"/>
<rect x="57.252" y="44.127" display="none" stroke="#000000" stroke-width="0.5" width="1.083" height="1.834"/>
<rect x="33.043" y="26.919" display="none" stroke="#000000" stroke-width="0.5" width="33.5" height="0.875"/>
<rect x="23.543" y="25.919" display="none" stroke="#000000" stroke-width="0.5" width="3.875" height="1.375"/>
<rect x="25.481" y="26.606" display="none" stroke="#000000" stroke-width="0.5" width="1.563" height="2.938"/>
<rect x="27.293" y="26.919" display="none" stroke="#000000" stroke-width="0.5" width="5.75" height="1.375"/>
<rect x="29.918" y="25.919" display="none" stroke="#000000" stroke-width="0.5" width="1.625" height="1.75"/>
<rect x="65.953" y="28.941" transform="matrix(0.8995 0.437 -0.437 0.8995 20.0599 -28.0553)" display="none" stroke="#000000" stroke-width="0.5" width="10.091" height="1.25"/>
<path display="none" stroke="#000000" stroke-width="0.5" d="M27.458,24.731c0,0.393-0.318,0.711-0.711,0.711h-1.117
	c-0.393,0-0.711-0.318-0.711-0.711l0,0c0-0.393,0.318-0.711,0.711-0.711h1.117C27.139,24.021,27.458,24.339,27.458,24.731
	L27.458,24.731z"/>
<rect x="28.043" y="28.044" display="none" fill="none" stroke="#000000" stroke-width="0.5" width="1" height="2.5"/>
<path display="none" fill="none" stroke="#000000" stroke-width="0.5" d="M24.668,37.544c0,0,0.993-2.255,1.75-3.875
	s2.875-4.125,2.875-4.125"/>
<path display="none" stroke="#000000" d="M46.491,44.849c0.077,0.582-0.249,1.104-0.728,1.167l0,0
	c-0.478,0.063-0.928-0.357-1.004-0.939l-0.163-1.239c-0.077-0.582,0.249-1.104,0.728-1.167l0,0c0.479-0.063,0.928,0.357,1.005,0.939
	L46.491,44.849z"/>
<path display="none" fill="none" stroke="#000000" d="M23.543,26.419c-6.25-0.5-6.625,14.25-5.875,21.375
	c0.838,7.965,2.875,26.125,9.5,28.75c11.373,4.507,1.462-27.441,12.5-37.375c3.75-3.375,5.655,3.501,5.655,3.501"/>
<path display="none" stroke="#000000" stroke-width="0.5" d="M47.069,59.378h-0.863v3.082c0.204,0.036,0.503,0.049,0.875,0.049
	c1.079,0,2.075-0.396,2.075-1.571C49.156,59.834,48.208,59.378,47.069,59.378z M59.148,69.887V47.773
	c0.146,1.389-14.044,1.567-15.333,0.52v21.695c1.488,0.489,3.997,1.05,7.771,1.098C54.97,71.13,57.499,70.498,59.148,69.887z
	 M51.666,55.168h1.043v3.383h3.91v-3.383h1.056v8.084h-1.056v-3.79h-3.91v3.79h-1.043V55.168z M49.576,62.568
	c-0.564,0.516-1.475,0.756-2.794,0.756c-0.72,0-1.271-0.048-1.619-0.097v-7.951c0.456-0.096,1.175-0.168,1.907-0.168
	c1.043,0,1.715,0.18,2.219,0.588c0.42,0.312,0.672,0.791,0.672,1.427c0,0.78-0.516,1.464-1.367,1.775v0.023
	c0.768,0.192,1.667,0.828,1.667,2.027C50.259,61.645,49.983,62.173,49.576,62.568z M48.904,57.231c0-0.947-0.719-1.319-1.775-1.319
	c-0.479,0-0.755,0.036-0.923,0.072v2.603h0.947C48.256,58.587,48.904,58.011,48.904,57.231z M51.648,71.939
	c-3.774-0.048-6.283-0.608-7.771-1.098v5.785c0,0,3.25,2.334,7.583,2.25s7.75-2.25,7.75-2.25V70.74
	C57.562,71.352,55.033,71.983,51.648,71.939z"/>
</svg>
